<?xml version="1.0" encoding="UTF-8" standalone="no"?>
<!-- Created with Inkscape (http://www.inkscape.org/) -->

<svg
   xmlns:dc="http://purl.org/dc/elements/1.1/"
   xmlns:cc="http://creativecommons.org/ns#"
   xmlns:rdf="http://www.w3.org/1999/02/22-rdf-syntax-ns#"
   xmlns:svg="http://www.w3.org/2000/svg"
   xmlns="http://www.w3.org/2000/svg"
   xmlns:sodipodi="http://sodipodi.sourceforge.net/DTD/sodipodi-0.dtd"
   xmlns:inkscape="http://www.inkscape.org/namespaces/inkscape"
   width="1000"
   height="1000"
   viewBox="0 0 264.58333 264.58333"
   version="1.1"
   id="svg8"
   sodipodi:docname="404.svg"
   inkscape:version="0.92.3 (2405546, 2018-03-11)">
  <defs
     id="defs2" />
  <sodipodi:namedview
     id="base"
     pagecolor="#ffffff"
     bordercolor="#666666"
     borderopacity="1.0"
     inkscape:pageopacity="0.0"
     inkscape:pageshadow="2"
     inkscape:zoom="0.7"
     inkscape:cx="894.67617"
     inkscape:cy="539.05731"
     inkscape:document-units="px"
     inkscape:current-layer="layer1"
     showgrid="false"
     units="px"
     inkscape:window-width="1366"
     inkscape:window-height="700"
     inkscape:window-x="0"
     inkscape:window-y="32"
     inkscape:window-maximized="1"
     showguides="false" />
  <metadata
     id="metadata5">
    <rdf:RDF>
      <cc:Work
         rdf:about="">
        <dc:format>image/svg+xml</dc:format>
        <dc:type
           rdf:resource="http://purl.org/dc/dcmitype/StillImage" />
        <dc:title />
      </cc:Work>
    </rdf:RDF>
  </metadata>
  <g
     inkscape:label="Capa 1"
     inkscape:groupmode="layer"
     id="layer1"
     transform="translate(0,-32.416657)">
    <ellipse
       style="fill:#800000;stroke:none;stroke-width:0.21110334;stroke-opacity:1"
       id="path955"
       cx="136.83389"
       cy="262.79871"
       rx="86.178566"
       ry="29.482141" />
    <rect
       style="fill:#000080;stroke:none;stroke-width:0.13206677;stroke-opacity:1"
       id="rect282"
       width="11.147375"
       height="37.200108"
       x="146.64772"
       y="119.29459"
       transform="matrix(0.99905977,0.0433541,-0.31880474,0.94782041,0,0)" />
    <rect
       style="fill:#000080;stroke:none;stroke-width:0.1296598;stroke-opacity:1"
       id="rect282-1"
       width="10.91475"
       height="36.620701"
       x="74.319801"
       y="167.27493"
       transform="matrix(0.94337587,-0.33172575,0.46939114,0.88299035,0,0)" />
    <rect
       style="fill:#1a1a1a;stroke:none;stroke-width:0.21179628;stroke-opacity:1"
       id="rect404-0"
       width="23.291735"
       height="9.260066"
       x="-303.68094"
       y="122.20554"
       transform="matrix(-0.82112184,-0.57075294,-0.64694213,0.7625391,0,0)" />
    <rect
       style="fill:#1a1a1a;stroke:none;stroke-width:0.21179628;stroke-opacity:1"
       id="rect404"
       width="23.291735"
       height="9.260066"
       x="-98.482864"
       y="275.91678"
       transform="matrix(0.82112184,-0.57075294,0.64694213,0.7625391,0,0)" />
    <rect
       style="fill:#000000;stroke:none;stroke-width:0.22239301;stroke-opacity:1"
       id="rect338"
       width="50.233124"
       height="24.758677"
       x="108.6546"
       y="171.74896" />
    <rect
       style="fill:#000080;stroke:none;stroke-width:0.13958159;stroke-opacity:1"
       id="rect280"
       width="50.447414"
       height="56.455235"
       x="108.47816"
       y="119.42767" />
    <ellipse
       style="fill:#000000;stroke:none;stroke-width:0.0768074;stroke-opacity:1"
       id="path93"
       cx="76.243591"
       cy="182.67607"
       rx="21.366627"
       ry="10.569791"
       transform="matrix(0.92144293,-0.38851375,0.35459794,0.93501888,0,0)" />
    <text
       xml:space="preserve"
       style="font-style:normal;font-weight:normal;font-size:5.69638109px;line-height:1.25;font-family:sans-serif;letter-spacing:0px;word-spacing:0px;fill:#000000;fill-opacity:1;stroke:none;stroke-width:0.14240953"
       x="66.409561"
       y="188.34032"
       id="text201"
       transform="matrix(0.97074338,-0.34907846,0.37912715,0.89380457,0,0)"><tspan
         sodipodi:role="line"
         x="66.406708"
         y="188.34032"
         id="tspan199"
         style="stroke-width:0.14240953"><tspan
           x="66.409561"
           y="188.34032"
           style="font-style:italic;font-variant:normal;font-weight:bold;font-stretch:normal;font-size:15.19035053px;line-height:0.80000001;font-family:'Liberation Mono';-inkscape-font-specification:'Liberation Mono Bold Italic';text-align:center;letter-spacing:-0.00569638px;word-spacing:-0.02136143px;text-anchor:middle;fill:#ffffff;stroke-width:0.14240953"
           id="tspan195">404</tspan><tspan
           dx="0"
           x="93.7173"
           y="188.34032"
           style="font-style:italic;font-variant:normal;font-weight:bold;font-stretch:normal;font-size:15.19035053px;line-height:0.80000001;font-family:'Liberation Mono';-inkscape-font-specification:'Liberation Mono Bold Italic';text-align:center;letter-spacing:-0.00569638px;word-spacing:-0.02136143px;text-anchor:middle;fill:#ffffff;stroke-width:0.14240953"
           id="tspan197" /></tspan></text>
    <rect
       style="fill:#ffaaaa;stroke:none;stroke-width:0.17388397;stroke-opacity:1"
       id="rect221"
       width="47.81723"
       height="37.366055"
       x="111.16499"
       y="76.066734" />
    <rect
       style="fill:#000000;stroke:none;stroke-width:0.12429885;stroke-opacity:1"
       id="rect223"
       width="52.100636"
       height="7.3107486"
       x="111.16499"
       y="76.066734" />
    <rect
       style="fill:#000000;stroke:none;stroke-width:0.21130666;stroke-opacity:1"
       id="rect227"
       width="17.499895"
       height="2.8430696"
       x="139.61057"
       y="94.171288" />
    <rect
       style="fill:#000000;stroke:none;stroke-width:0.21130666;stroke-opacity:1"
       id="rect227-6"
       width="17.499895"
       height="2.8430696"
       x="114.20838"
       y="94.140541" />
    <rect
       style="fill:#000000;stroke:none;stroke-width:0.21130666;stroke-opacity:1"
       id="rect259"
       width="7.8525162"
       height="3.0461459"
       x="130.36214"
       y="104.90356" />
    <rect
       style="fill:#00ffff;stroke:none;stroke-width:0.21295106;stroke-opacity:1"
       id="rect261"
       width="2.6922915"
       height="16.499958"
       x="120.88301"
       y="96.983597" />
    <rect
       style="fill:#00ffff;stroke:none;stroke-width:0.21295106;stroke-opacity:1"
       id="rect261-9"
       width="2.6922915"
       height="16.499958"
       x="145.44385"
       y="96.887444" />
    <rect
       style="fill:#ffaaaa;stroke:none;stroke-width:0.04735063;stroke-opacity:1"
       id="rect221-2"
       width="13.128635"
       height="10.091938"
       x="143.27452"
       y="132.14522"
       transform="matrix(0.90917474,0.41641481,-0.37248408,0.92803858,0,0)" />
    <rect
       style="fill:#ffaaaa;stroke:none;stroke-width:0.04391437;stroke-opacity:1"
       id="rect221-2-7"
       width="12.434539"
       height="9.1648636"
       x="201.64597"
       y="-136.30141"
       transform="matrix(0.41822071,0.90834544,-0.91000285,0.414602,0,0)" />
    <rect
       style="fill:#000000;stroke:none;stroke-width:0.21130666;stroke-opacity:1"
       id="rect340"
       width="13.910173"
       height="84.276703"
       x="108.31248"
       y="176.09734" />
    <rect
       style="fill:#000000;stroke:none;stroke-width:0.21130666;stroke-opacity:1"
       id="rect340-0"
       width="13.910173"
       height="84.276703"
       x="144.96104"
       y="175.94632" />
    <rect
       style="fill:#ffaaaa;stroke:none;stroke-width:0.03827025;stroke-opacity:1"
       id="rect221-3"
       width="14.028226"
       height="6.1696749"
       x="127.05521"
       y="113.30842" />
    <rect
       style="fill:#000080;stroke:none;stroke-width:0.05354588;stroke-opacity:1"
       id="rect282-1-6"
       width="17.563667"
       height="3.8812034"
       x="125.31012"
       y="115.95998" />
    <rect
       style="fill:#ffaaaa;stroke:none;stroke-width:0.1296598;stroke-opacity:1"
       id="rect282-1-2"
       width="10.91475"
       height="36.620701"
       x="-169.90219"
       y="111.90273"
       transform="matrix(-0.94337587,-0.33172573,-0.46939112,0.88299036,0,0)" />
    <rect
       style="fill:#ffaaaa;stroke:none;stroke-width:0.12963066;stroke-opacity:1"
       id="rect282-1-2-6"
       width="9.4669695"
       height="42.202114"
       x="193.36208"
       y="76.913544"
       transform="matrix(0.45866387,0.88860985,0.94636016,-0.32311368,0,0)" />
    <path
       style="fill:#ff0000;stroke:none;stroke-width:0.23641808;stroke-opacity:1"
       id="path470"
       sodipodi:type="arc"
       sodipodi:cx="211.03662"
       sodipodi:cy="78.759521"
       sodipodi:rx="24.568451"
       sodipodi:ry="28.820684"
       sodipodi:start="1.0547093"
       sodipodi:end="0.83700929"
       d="m 223.16067,103.82651 a 24.568451,28.820684 0 0 1 -32.80146,-9.502002 24.568451,28.820684 0 0 1 6.30373,-38.93856 24.568451,28.820684 0 0 1 33.48729,5.265629 24.568451,28.820684 0 0 1 -2.66044,39.511443"
       sodipodi:open="true" />
    <rect
       style="fill:#ff0000;stroke:none;stroke-width:0.18818644;stroke-opacity:1"
       id="rect472"
       width="6.1304188"
       height="5.4466872"
       x="55.805943"
       y="205.53979"
       transform="matrix(0.88944982,-0.45703284,0.76007529,0.64983502,0,0)" />
    <path
       style="fill:#000000;stroke:none;stroke-width:0.26458332;stroke-opacity:1"
       id="path1283"
       d="m 210.17333,111.12891 c 0.0225,0.3423 -0.0502,0.66772 -0.12577,0.9987 -0.1018,0.40338 -0.15985,0.81759 -0.2657,1.21942 -0.1172,0.41821 -0.24736,0.83039 -0.40764,1.23402 -0.28701,0.58395 -0.58754,1.16432 -0.91354,1.72804 -0.3892,0.63685 -0.75631,1.28609 -1.11139,1.94246 -0.26305,0.5154 -0.50653,1.04006 -0.69586,1.58723 -0.17844,0.65546 -0.31754,1.32027 -0.40969,1.99318 -0.0609,0.6955 -0.13164,1.39025 -0.17805,2.08701 -0.0387,0.63461 -0.0474,1.2704 -0.0514,1.906 -0.004,0.6046 0.002,1.20919 0.001,1.81379 -0.014,0.53952 0.0138,1.07954 0.0974,1.61278 0.0621,0.44128 0.14709,0.87498 0.25058,1.30797 0.17138,0.70221 0.36774,1.3979 0.53021,2.10253 0.18192,0.65684 0.36574,1.31271 0.60923,1.9496 0.19349,0.61878 0.40669,1.23059 0.60759,1.84693 0.19294,0.63152 0.37251,1.2619 0.48302,1.91344 0.12777,0.56195 0.14607,1.13986 0.23649,1.70664 0.12514,0.58 0.14541,1.1754 0.2022,1.76398 0.0448,0.46473 0.10445,0.92793 0.15613,1.39196 0.19274,1.31884 0.3731,2.63908 0.5818,3.95551 0.10917,0.7504 0.24149,1.49779 0.32337,2.25185 0.0591,0.69833 0.0578,1.40014 0.0609,2.10046 0.003,0.57963 0.01,1.15927 0.008,1.7389 -8e-4,0.63789 -0.008,1.27573 -0.01,1.91361 -0.003,0.81726 -0.001,1.63452 -8e-4,2.45178 0.009,0.74867 0.009,1.49559 -0.0368,2.24299 -0.062,0.92344 -0.18591,1.83824 -0.31779,2.75361 -0.1327,0.83585 -0.24538,1.67674 -0.39519,2.50982 -0.143,0.69006 -0.21723,1.39093 -0.31929,2.08748 -0.0736,0.61319 -0.22019,1.2152 -0.34901,1.81858 -0.14645,0.70295 -0.33321,1.39652 -0.53271,2.086 -0.16315,0.61561 -0.28799,1.24164 -0.37363,1.87267 -0.009,0.38849 -0.099,0.75485 -0.20363,1.12548 -0.12297,0.41793 -0.20759,0.84416 -0.33024,1.26243 -0.14223,0.45281 -0.1747,0.92479 -0.1947,1.39572 -0.0111,0.32366 -0.0119,0.64754 -0.0117,0.97135 0,0 -0.8046,0.40962 -0.8046,0.40962 v 0 c 0.002,-0.32573 0.005,-0.65149 0.0153,-0.97708 0.0198,-0.47595 0.0344,-0.95464 0.17932,-1.41304 0.12617,-0.41576 0.21097,-0.8384 0.32416,-1.25725 0.0984,-0.3712 0.21834,-0.73117 0.2218,-1.12142 0.0916,-0.63635 0.2179,-1.26813 0.38009,-1.8903 0.20407,-0.68421 0.38664,-1.37539 0.52724,-2.07566 0.12491,-0.60258 0.28552,-1.20052 0.35108,-1.81354 0.1039,-0.70024 0.19641,-1.40257 0.33281,-2.09754 0.15574,-0.83178 0.26476,-1.67338 0.39967,-2.50872 0.13985,-0.91138 0.26617,-1.82249 0.31698,-2.74418 0.037,-0.74605 0.046,-1.49175 0.0393,-2.23882 2.7e-4,-0.81697 0.002,-1.63395 -7.9e-4,-2.45092 -0.002,-0.63489 -0.009,-1.26974 -0.008,-1.90463 9e-5,-0.58219 0.009,-1.16434 0.008,-1.74654 -0.005,-0.6964 -0.006,-1.39389 -0.0655,-2.08831 -0.0751,-0.75777 -0.19819,-1.5097 -0.28802,-2.26577 -0.19216,-1.32228 -0.36634,-2.64689 -0.56377,-3.96842 -0.12448,-1.04234 -0.22302,-2.08996 -0.41175,-3.12297 -0.0971,-0.56626 -0.10705,-1.14559 -0.23387,-1.70831 -0.1012,-0.64934 -0.28117,-1.27485 -0.47638,-1.90154 -0.19954,-0.61539 -0.40894,-1.22723 -0.60368,-1.8442 -0.24167,-0.64271 -0.42885,-1.30105 -0.61085,-1.96318 -0.15173,-0.70561 -0.35189,-1.39763 -0.54512,-2.09244 -0.10842,-0.43465 -0.19644,-0.86974 -0.25464,-1.31448 -0.0833,-0.53862 -0.10676,-1.0839 -0.097,-1.62852 -0.001,-0.6056 0.002,-1.2112 0.003,-1.8168 0.004,-0.63765 0.006,-1.27603 0.052,-1.91236 0.0481,-0.69855 0.11537,-1.39535 0.17667,-2.09278 0.0883,-0.67609 0.22945,-1.34247 0.39276,-2.00425 0.18562,-0.55565 0.4284,-1.08669 0.69992,-1.60553 0.35597,-0.65779 0.72142,-1.30981 1.11392,-1.94663 0.32529,-0.55455 0.608,-1.13266 0.89733,-1.70635 0.16156,-0.40044 0.29287,-0.80855 0.41024,-1.22416 0.11541,-0.39748 0.16118,-0.81402 0.26673,-1.21491 0.0708,-0.32322 0.15932,-0.63688 0.11629,-0.97152 0,0 0.82523,-0.42047 0.82523,-0.42047 z"
       inkscape:connector-curvature="0" />
    <ellipse
       style="fill:#ffffff;stroke:none;stroke-width:0.21160471;stroke-opacity:1"
       id="path132"
       cx="46.278049"
       cy="84.054459"
       rx="47.565514"
       ry="28.234032"
       transform="matrix(0.98407622,-0.17774701,0.21517935,0.97657455,0,0)" />
    <text
       xml:space="preserve"
       style="font-style:normal;font-variant:normal;font-weight:normal;font-stretch:normal;font-size:10.58333302px;line-height:1.25;font-family:'Liberation Sans';-inkscape-font-specification:'Liberation Sans';letter-spacing:0px;word-spacing:-0.00529167px;fill:#000000;fill-opacity:1;stroke:none;stroke-width:0.26458332"
       x="14.657372"
       y="83.019829"
       id="text193"
       transform="rotate(-11.537095)"><tspan
         sodipodi:role="line"
         x="14.657372"
         y="83.019829"
         id="tspan187"
         style="stroke-width:0.26458332"><tspan
           dx="0 0 0 0.0052916664 -0.0052907784 0 0 0.0052916664 -0.0052887597 0 0 0.0052876291"
           x="14.657372"
           y="83.019829"
           id="tspan185"
           style="stroke-width:0.26458332">SO, YOU GOT </tspan></tspan><tspan
         sodipodi:role="line"
         x="14.657372"
         y="96.248993"
         id="tspan191"
         style="stroke-width:0.26458332"><tspan
           dx="0 0 0 0 0.0052916664 -0.0052907784"
           x="14.657372"
           y="96.248993"
           id="tspan189"
           style="stroke-width:0.26458332">LOST TOO?</tspan></tspan></text>
    <path
       style="fill:#ffffff;stroke:none;stroke-width:0.26458332px;stroke-linecap:butt;stroke-linejoin:miter;stroke-opacity:1"
       d="m 73.254777,90.329278 9.621712,-1.937704 c 1.58812,-1.123931 2.09004,11.816776 8.75308,11.358959 l 7.673408,-0.52724 c -1e-4,0 -20.678278,15.870837 -26.0482,-8.894015 z"
       id="path951"
       inkscape:connector-curvature="0"
       sodipodi:nodetypes="ccscc" />
  </g>
</svg>
